<svg xmlns="http://www.w3.org/2000/svg" baseProfile="full" version="1.1" style="fill: none; stroke-width: 26;" width="1825px" height="865px"><path style="stroke-width: 10; stroke-linecap: round; stroke-linejoin: round; stroke: rgb(153, 153, 153); fill: none;" d=""/><path style="stroke-width: 10; stroke-linecap: round; stroke-linejoin: round; stroke: rgb(204, 204, 204); fill: none;" d=""/><path style="stroke-width: 26; stroke-linecap: square; stroke-linejoin: bevel; stroke: rgb(255, 255, 255); fill: rgb(255, 255, 255);" d="M245,125 A480,420 0 0,1 725,545 L725,545 M485,725 A420,660 0 0,0 905,65 A420,660 0 0,0 485,725 A420,660 0 0,0 905,65 M1580,125 A480,420 0 0,0 1100,545 L1100,545 M1340,725 A420,660 0 0,1 920,65 A420,660 0 0,1 1340,725 A420,660 0 0,1 920,65 "/></svg>