<svg xmlns="http://www.w3.org/2000/svg" xmlns:xlink="http://www.w3.org/1999/xlink" version="1.1" id="Layer_1" x="0px" y="0px" width="100px" height="100px" viewBox="0 0 100 100" enable-background="new 0 0 100 100" xml:space="preserve">
<g>
	<path d="M50,0C22.386,0,0,22.386,0,50s22.386,50,50,50s50-22.386,50-50S77.614,0,50,0z M68.871,59.068   c-2.809,2.808-6.479,4.428-10.098,4.428c-2.105,0-3.832-0.811-4.644-2.105c-0.271-0.433-0.323-0.701-0.485-1.675   c-2.052,2.376-4.21,3.402-7.233,3.402c-5.345,0-8.747-3.996-8.747-10.151c0-9.124,5.994-16.683,13.174-16.683   c3.021,0,4.535,0.756,5.994,3.024l0.54-1.891h6.368c-0.321,1.081-1.297,4.374-1.565,5.562l-3.239,11.986   c-0.162,0.594-0.217,1.133-0.217,1.619c0,0.864,0.485,1.35,1.404,1.35c1.025,0,2.32-0.539,3.4-1.403   c2.646-2.052,4.373-6.046,4.373-10.201c0-4.967-2.32-9.286-6.209-11.716c-2.43-1.457-5.83-2.268-9.664-2.268   c-11.393,0-19.384,7.559-19.384,18.249c0,10.367,7.18,17.17,18.032,17.17c2.808,0,5.776-0.433,8.263-1.186   c2.105-0.65,3.457-1.297,6.047-2.862l3.293,4.751c-2.916,1.729-4.213,2.376-6.75,3.133c-3.67,1.133-7.558,1.726-11.444,1.726   c-7.613,0-13.552-2.158-17.817-6.427C28.213,62.904,26,57.18,26,50.918c0-6.695,2.268-12.473,6.587-16.846   c4.967-4.967,11.501-7.396,19.869-7.396C65.036,26.676,74,34.773,74,46.058C74,51.133,72.164,55.777,68.871,59.068z"/>
	<path d="M51.646,41.413c-2.052,0-3.94,1.351-5.292,3.888c-1.295,2.429-2.159,5.615-2.159,8.1c0,2.86,1.081,4.371,3.131,4.371   c1.999,0,3.889-1.565,5.293-4.319c1.295-2.537,2.158-5.828,2.158-8.313C54.777,42.925,53.536,41.413,51.646,41.413z"/>
</g>
</svg>