<svg xmlns="http://www.w3.org/2000/svg" width="133.935" height="134" viewBox="0 0 133.935 134"><defs><style>.chat{fill:#f5f7fb;}</style></defs><g transform="translate(0)"><path class="chat" d="M19.729,19.64a66.981,66.981,0,0,1,99.154,89.838c3,6.144,6.537,10.241,10.549,12.2a6.25,6.25,0,0,1-1.8,11.784,31.877,31.877,0,0,1-4.742.365h0a43.32,43.32,0,0,1-24.073-7.8A67,67,0,0,1,19.729,19.64ZM25.088,109a59.435,59.435,0,0,0,72.079,9.231,3.77,3.77,0,0,1,4.237.253,36.075,36.075,0,0,0,21.015,7.716c-4.517-3.367-8.3-8.585-11.475-15.852a3.814,3.814,0,0,1,.645-4.04A59.406,59.406,0,1,0,25.088,109Z" transform="translate(-0.117)"/><path class="chat
" d="M129.071,160h56.114a3.788,3.788,0,0,1,0,7.575H129.071a3.788,3.788,0,1,1,0-7.575Z" transform="translate(-90.156 -115.109)"/><path class="chat" d="M129.071,225.3h56.114a3.788,3.788,0,1,1,0,7.575H129.071a3.788,3.788,0,1,1,0-7.575Z" transform="translate(-90.156 -162.088)"/><path class="chat" d="M129.071,290.6h56.114a3.788,3.788,0,1,1,0,7.575H129.071a3.788,3.788,0,1,1,0-7.575Z" transform="translate(-90.156 -209.067)"/></g></svg>