<svg xmlns="http://www.w3.org/2000/svg" width="44.732" height="44.732" viewBox="0 0 44.732 44.732"><g transform="translate(0 11.906)"><path d="M44.077,167.791H41.931v-9.007a2.055,2.055,0,0,0-1.356-3.6H36.288l-.662-10.591a.655.655,0,0,0-.654-.614h-2.8a.655.655,0,0,0-.654.614l-.662,10.591h-1.57l-.662-10.591a.655.655,0,0,0-.654-.614h-2.8a.655.655,0,0,0-.654.614l-.662,10.591h-1.57l-.662-10.591a.655.655,0,0,0-.654-.614h-2.8a.655.655,0,0,0-.654.614l-.662,10.591H15.023l-.406-18.269a.655.655,0,0,0-.655-.641H9.76a.655.655,0,0,0-.655.641l-.468,21.07H3.457a2.055,2.055,0,0,0-1.356,3.6v6.205H.655a.655.655,0,0,0,0,1.311H44.077a.655.655,0,0,0,0-1.311Zm-35.5-7H6.258a.655.655,0,0,0,0,1.311H8.545l-.127,5.693H3.412V162.1h.045a.655.655,0,1,0,0-1.311.745.745,0,0,1,0-1.491H8.607Zm24.212-15.5h1.57l.618,9.9H32.168Zm-7,0h1.57l.618,9.9H25.165Zm-7,0h1.57l.618,9.9H18.161Zm-7.574,22.5H9.73l.671-30.205h2.92l.391,17.6H12.561a2.055,2.055,0,0,0-1.356,3.6Zm29.37-9.8h-1.4a.655.655,0,1,0,0,1.311H40.62v8.5h-28.1v-8.5H36.374a.655.655,0,1,0,0-1.311H12.561a.745.745,0,1,1,0-1.491H40.575a.745.745,0,1,1,0,1.491Z" transform="translate(0 -136.275)"/></g><g transform="translate(10.505)"><path d="M146.109,0a8.306,8.306,0,0,0-5.36,1.951,6.236,6.236,0,0,0-8.128.547,4.848,4.848,0,0,0-6.367,2.515,2.978,2.978,0,0,0-.806-.111,3.1,3.1,0,0,0-2.933,2.113A1.979,1.979,0,0,0,122.3,7a2.058,2.058,0,0,0-2.056,2.056.655.655,0,1,0,1.311,0,.746.746,0,0,1,.746-.745.731.731,0,0,1,.379.109.655.655,0,0,0,.99-.523,1.793,1.793,0,0,1,1.782-1.688,1.767,1.767,0,0,1,.874.239.655.655,0,0,0,.955-.4,3.538,3.538,0,0,1,5.166-2.178.655.655,0,0,0,.819-.142,4.929,4.929,0,0,1,7.065-.429.655.655,0,0,0,.9-.013,7.044,7.044,0,1,1-1.3,8.443.655.655,0,0,0-.849-.281,4.923,4.923,0,0,1-5.807-1.262.655.655,0,0,0-.819-.142,3.534,3.534,0,0,1-4.553-.931.656.656,0,0,0-.516-.256h0a.655.655,0,0,0-.516.251,1.782,1.782,0,0,1-1.406.7.655.655,0,1,0,0,1.311,3.062,3.062,0,0,0,1.893-.653,4.843,4.843,0,0,0,5.279.956,6.249,6.249,0,0,0,4.383,1.8,6.176,6.176,0,0,0,2.062-.353A8.359,8.359,0,1,0,146.109,0Z" transform="translate(-120.241)"/></g><g transform="translate(16.108 36.418)"><path d="M185.026,416.839a.655.655,0,0,0-.655.655v1.4a.655.655,0,1,0,1.311,0v-1.4A.655.655,0,0,0,185.026,416.839Z" transform="translate(-184.371 -416.839)"/></g><g transform="translate(18.909 36.418)"><path d="M217.091,416.839a.655.655,0,0,0-.655.655v1.4a.655.655,0,1,0,1.311,0v-1.4A.655.655,0,0,0,217.091,416.839Z" transform="translate(-216.436 -416.839)"/></g><g transform="translate(21.711 36.418)"><path d="M249.155,416.839a.655.655,0,0,0-.655.655v1.4a.655.655,0,1,0,1.311,0v-1.4A.655.655,0,0,0,249.155,416.839Z" transform="translate(-248.5 -416.839)"/></g><g transform="translate(24.512 36.418)"><path d="M281.219,416.839a.655.655,0,0,0-.655.655v1.4a.655.655,0,1,0,1.31,0v-1.4A.655.655,0,0,0,281.219,416.839Z" transform="translate(-280.564 -416.839)"/></g><g transform="translate(27.314 36.418)"><path d="M313.284,416.839a.655.655,0,0,0-.655.655v1.4a.655.655,0,1,0,1.31,0v-1.4A.655.655,0,0,0,313.284,416.839Z" transform="translate(-312.629 -416.839)"/></g><g transform="translate(30.115 36.418)"><path d="M345.348,416.839a.655.655,0,0,0-.655.655v1.4a.655.655,0,0,0,1.311,0v-1.4A.655.655,0,0,0,345.348,416.839Z" transform="translate(-344.693 -416.839)"/></g><g transform="translate(32.916 36.418)"><path d="M377.413,416.839a.655.655,0,0,0-.655.655v1.4a.655.655,0,1,0,1.311,0v-1.4A.655.655,0,0,0,377.413,416.839Z" transform="translate(-376.758 -416.839)"/></g><g transform="translate(35.718 36.418)"><path d="M409.478,416.839a.655.655,0,0,0-.655.655v1.4a.655.655,0,1,0,1.311,0v-1.4A.655.655,0,0,0,409.478,416.839Z" transform="translate(-408.823 -416.839)"/></g></svg>