<svg xmlns="http://www.w3.org/2000/svg" width="17.156" height="17.438" viewBox="0 0 17.156 17.438"><defs><style>.a{fill:#fa9140;}</style></defs><path class="a" d="M17.156-6.539A8.384,8.384,0,0,1,14.818-.422a8.152,8.152,0,0,1-6.1,2.391A8.4,8.4,0,0,1,2.549-.58,8.4,8.4,0,0,1,0-6.75a8.4,8.4,0,0,1,2.549-6.17,8.4,8.4,0,0,1,6.17-2.549,8.208,8.208,0,0,1,5.836,2.285L12.2-10.9A4.572,4.572,0,0,0,9.51-12.182a5.55,5.55,0,0,0-2.918.387,5.519,5.519,0,0,0-2.32,1.934A5.217,5.217,0,0,0,3.3-6.75a5.378,5.378,0,0,0,1.582,3.9A5.162,5.162,0,0,0,8.719-1.23a5.65,5.65,0,0,0,2.2-.4,4.082,4.082,0,0,0,1.512-1.02,5.694,5.694,0,0,0,.844-1.213,4.523,4.523,0,0,0,.4-1.125H8.719V-8.016h8.3A8.261,8.261,0,0,1,17.156-6.539Z" transform="translate(0 15.469)"/></svg>