<svg xmlns="http://www.w3.org/2000/svg" width="15.75" height="15.75" viewBox="0 0 15.75 15.75"><defs><style>.a{fill:#fa9140;}</style></defs><path class="a" d="M3.516,0H.246V-10.512h3.27ZM1.9-11.953a1.825,1.825,0,0,1-1.336-.562A1.825,1.825,0,0,1,0-13.852a1.825,1.825,0,0,1,.563-1.336A1.825,1.825,0,0,1,1.9-15.75a1.878,1.878,0,0,1,.932.246,1.879,1.879,0,0,1,.7.686,1.812,1.812,0,0,1,.264.949,1.812,1.812,0,0,1-.264.949,2.02,2.02,0,0,1-.7.7A1.782,1.782,0,0,1,1.9-11.953ZM15.75,0H12.48V-5.133q0-.6-.035-.967a4.53,4.53,0,0,0-.176-.844,1.262,1.262,0,0,0-.51-.721,1.714,1.714,0,0,0-.967-.246,1.62,1.62,0,0,0-1.564.738,4.1,4.1,0,0,0-.4,1.969V0H5.555V-10.512H8.719V-9.07h.035a3.086,3.086,0,0,1,1.16-1.213,3.551,3.551,0,0,1,1.934-.51,4.7,4.7,0,0,1,1.986.369,2.579,2.579,0,0,1,1.2,1.09,5.092,5.092,0,0,1,.563,1.564,11.024,11.024,0,0,1,.158,2Z" transform="translate(0 15.75)"/></svg>