<svg xmlns="http://www.w3.org/2000/svg" width="41.382" height="43.538" viewBox="0 0 41.382 43.538"><defs><style>.a{fill:#fa9140;}</style></defs><g transform="translate(-15.654 -16.47)"><g transform="translate(15.654 16.47)"><path class="a" d="M46.9,8.924H45.779V6.434A6.443,6.443,0,0,0,39.345,0H25.837A6.443,6.443,0,0,0,19.4,6.434v2.49h-1.02a6.443,6.443,0,0,0-6.434,6.434V25.735a6.443,6.443,0,0,0,6.434,6.434h1.011v8.157a3.219,3.219,0,0,0,3.212,3.212H42.558a3.219,3.219,0,0,0,3.212-3.212V32.169H46.9a6.443,6.443,0,0,0,6.434-6.434V15.358A6.443,6.443,0,0,0,46.9,8.924ZM21.831,6.434a4.005,4.005,0,0,1,4-4h13.5a4.005,4.005,0,0,1,4,4v2.49H21.831Zm21.5,33.91a.782.782,0,0,1-.776.776H22.607a.782.782,0,0,1-.776-.776V26.89h21.5Zm7.562-14.6a4.005,4.005,0,0,1-4,4H45.779V26.89h1.606a1.218,1.218,0,1,0,0-2.436H17.608a1.218,1.218,0,0,0,0,2.436h1.8v2.851h-1.02a4.005,4.005,0,0,1-4-4V15.367a4.005,4.005,0,0,1,4-4H46.9a4.005,4.005,0,0,1,4,4Z" transform="translate(-11.95)"/><path class="a" d="M141.868,339.836H157.38a1.218,1.218,0,0,0,0-2.436H141.868a1.218,1.218,0,1,0,0,2.436Z" transform="translate(-129.037 -306.955)"/><path class="a" d="M158.389,392.6h-15.52a1.218,1.218,0,0,0,0,2.436H158.38a1.218,1.218,0,0,0,.009-2.436Z" transform="translate(-129.947 -357.174)"/><path class="a" d="M361.741,151.9h-2.472a1.218,1.218,0,0,0,0,2.436h2.472a1.218,1.218,0,0,0,0-2.436Z" transform="translate(-326.82 -138.193)"/></g></g></svg>