<svg xmlns="http://www.w3.org/2000/svg" width="40.759" height="41.956" viewBox="0 0 40.759 41.956"><defs><style>.a{fill:#fa9140;}</style></defs><g transform="translate(0)"><path class="a" d="M179.313,20.45V1.179a1.179,1.179,0,1,0-2.359,0V20.45a5.988,5.988,0,0,0,0,11.74v8.578a1.179,1.179,0,1,0,2.359,0V32.19a5.988,5.988,0,0,0,0-11.74Zm-1.179,9.5a3.625,3.625,0,1,1,3.625-3.625A3.627,3.627,0,0,1,178.134,29.945Z" transform="translate(-157.71)"/><path class="a" d="M14.013,10.561V1.179a1.179,1.179,0,1,0-2.359,0v9.382a5.988,5.988,0,0,0,0,11.74V40.768a1.179,1.179,0,1,0,2.359,0V22.293a5.983,5.983,0,0,0,0-11.732Zm-1.179,9.5a3.625,3.625,0,1,1,3.625-3.625A3.627,3.627,0,0,1,12.834,20.056Z" transform="translate(-6.85)"/><path class="a" d="M343.613,10.561V1.179a1.179,1.179,0,1,0-2.359,0v9.382a5.988,5.988,0,0,0,0,11.74V40.777a1.179,1.179,0,1,0,2.359,0V22.293a5.983,5.983,0,0,0,0-11.732Zm-1.179,9.5a3.625,3.625,0,1,1,3.625-3.625A3.627,3.627,0,0,1,342.434,20.056Z" transform="translate(-307.658)"/></g></svg>