<svg xmlns="http://www.w3.org/2000/svg" width="44.9" height="41.502" viewBox="0 0 44.9 41.502"><defs><style>.a{fill:#fa9140;}</style></defs><g transform="translate(0 0)"><path class="a" d="M36.517,29.24a13.006,13.006,0,0,0-24.1-4.321,7.451,7.451,0,0,0-1.366-.129,7.128,7.128,0,0,0-7.119,7.119,7.782,7.782,0,0,0,.148,1.477A9.906,9.906,0,0,0,0,41.372,10.59,10.59,0,0,0,2.687,48.38a9.589,9.589,0,0,0,6.648,3.342h8.014a1.246,1.246,0,1,0,0-2.493h-7.9C5.669,49,2.493,45.407,2.493,41.363a7.4,7.4,0,0,1,3.666-6.371A1.257,1.257,0,0,0,6.7,33.478a4.523,4.523,0,0,1-.277-1.588,4.634,4.634,0,0,1,4.626-4.626,4.547,4.547,0,0,1,1.579.277,1.252,1.252,0,0,0,1.56-.637,10.512,10.512,0,0,1,19.971,3.462A1.245,1.245,0,0,0,35.2,31.474a8.985,8.985,0,0,1-.849,17.746h-6.8a1.246,1.246,0,0,0,0,2.493h6.943a11.046,11.046,0,0,0,7.4-3.656A11.492,11.492,0,0,0,36.517,29.24Z" transform="translate(0 -18.4)"/><path class="a" d="M173.549,194.134a1.243,1.243,0,0,0,0-1.763l-6.6-6.6a1.261,1.261,0,0,0-.877-.369,1.223,1.223,0,0,0-.877.369l-6.6,6.6a1.251,1.251,0,0,0,.877,2.133,1.216,1.216,0,0,0,.877-.369l4.478-4.478v20.58a1.246,1.246,0,0,0,2.493,0v-20.58l4.478,4.478A1.232,1.232,0,0,0,173.549,194.134Z" transform="translate(-143.616 -169.981)"/></g></svg>