<svg xmlns="http://www.w3.org/2000/svg" width="44.671" height="43.182" viewBox="0 0 44.671 43.182"><path d="M41.692,8.533H2.979A2.982,2.982,0,0,0,0,11.512V36.08a.745.745,0,0,0,.744.744H43.926a.745.745,0,0,0,.744-.744V11.512A2.982,2.982,0,0,0,41.692,8.533Zm1.49,26.8H1.489V11.512a1.491,1.491,0,0,1,1.49-1.49H41.692a1.491,1.491,0,0,1,1.49,1.49Z" transform="translate(0 -8.533)"/><g transform="translate(0 26.802)"><path d="M43.926,315.733H.744a.745.745,0,0,0-.744.745V320.2a2.982,2.982,0,0,0,2.979,2.979H41.692a2.982,2.982,0,0,0,2.979-2.979v-3.722A.745.745,0,0,0,43.926,315.733Zm-.745,4.466a1.491,1.491,0,0,1-1.49,1.49H2.979a1.491,1.491,0,0,1-1.49-1.49v-2.977H43.182V320.2Z" transform="translate(0 -315.733)"/></g><g transform="translate(19.357 29.78)"><path d="M227.079,349.867h-4.467a.744.744,0,0,0,0,1.489h4.467a.744.744,0,1,0,0-1.489Z" transform="translate(-221.867 -349.867)"/></g><g transform="translate(2.978 2.978)"><path d="M72.1,42.667H34.878a.745.745,0,0,0-.744.744V67.236a.745.745,0,0,0,.744.744H72.1a.745.745,0,0,0,.744-.744V43.411A.745.745,0,0,0,72.1,42.667Zm-.744,23.824H35.623V44.156H71.359Z" transform="translate(-34.134 -42.667)"/></g><g transform="translate(10.423 38.715)"><path d="M141.058,452.267H121.7a2.234,2.234,0,1,0,0,4.467h19.357a2.234,2.234,0,1,0,0-4.467Zm0,2.978H121.7a.744.744,0,0,1,0-1.489h19.357a.744.744,0,1,1,0,1.489Z" transform="translate(-119.467 -452.267)"/></g><g transform="translate(13.401 32.759)"><path d="M170.725,389.957c-2.47,0-3.723-1.753-3.723-5.212a.745.745,0,0,0-.744-.744h-7.445a.745.745,0,0,0-.744.744c0,3.458-1.252,5.212-3.723,5.212a.744.744,0,1,0,0,1.489h16.379a.744.744,0,1,0,0-1.489Zm-12.753,0a7.133,7.133,0,0,0,1.565-4.467h6a7.124,7.124,0,0,0,1.565,4.467Z" transform="translate(-153.601 -384.001)"/></g><g transform="translate(26.063 15.635)"><path d="M308.236,194.033l-1.8-1.8,1-1a.744.744,0,0,0-.312-1.24l-7.445-2.234a.745.745,0,0,0-.927.927l2.234,7.445a.744.744,0,0,0,1.24.313l1.053-1.054,1.8,1.8a.744.744,0,0,0,1.053,0l2.105-2.106A.744.744,0,0,0,308.236,194.033Zm-2.632,1.58-1.636-1.637a.973.973,0,0,0-1.374,0l-.538.538-1.478-4.926,4.926,1.478-.576.576a.844.844,0,0,0,0,1.192l1.727,1.727Z" transform="translate(-298.723 -187.731)"/></g><g transform="translate(9.679 5.956)"><path d="M132.525,76.8H111.678a.745.745,0,0,0-.744.744v3.723a.745.745,0,0,0,.744.744h20.846a.745.745,0,0,0,.744-.744V77.544A.745.745,0,0,0,132.525,76.8Zm-.744,3.723H112.423V78.289H131.78Z" transform="translate(-110.934 -76.8)"/></g><g transform="translate(12.657 14.146)"><path d="M151.768,170.667h-5.956a.745.745,0,0,0-.744.744v2.978a.745.745,0,0,0,.744.744h5.956a.745.745,0,0,0,.744-.744v-2.978A.745.745,0,0,0,151.768,170.667Zm-.745,2.978h-4.467v-1.489h4.467Z" transform="translate(-145.067 -170.667)"/></g><g transform="translate(9.679 5.956)"><path d="M132.525,76.8H111.678a.745.745,0,0,0-.744.744V91.69a.745.745,0,0,0,.744.744H129.4a.745.745,0,0,0,.713-.959l-.943-3.143,3.138.942a.745.745,0,0,0,.958-.713V77.544A.745.745,0,0,0,132.525,76.8Zm-.744,10.761-3.5-1.051a.745.745,0,0,0-.927.928l1.053,3.508H112.423V78.289H131.78Z" transform="translate(-110.934 -76.8)"/></g></svg>