<svg xmlns="http://www.w3.org/2000/svg" viewBox="0 0 1970.16 664.492">
  <g style="mix-blend-mode:multiply;isolation:isolate" opacity=".1">
    <g opacity=".24">
      <path d="M83.236 138.261c-19.352-7.694-38.47-15.388-57.589-23.548V53.626c19.119 10.026 38.237 19.818 57.589 29.378zM173.467 171.369c-19.585-6.762-39.17-13.756-58.755-21.217V97.925q29.378 13.989 58.755 26.58zM265.098 201.213q-30.077-9.093-59.455-18.886v-44.066c19.818 8.16 39.636 16.088 59.455 23.549zM357.893 227.094c-20.287-5.126-40.336-10.726-60.387-16.554v-37.072c20.051 7.228 40.1 13.989 60.387 20.518zM451.855 249.476c-20.518-4.43-40.8-9.093-61.087-14.222v-31.01c20.284 6.3 40.569 12.124 61.087 17.72zM546.748 268.357c-20.518-3.73-41.035-7.694-61.553-11.658v-25.642q30.776 7.694 61.553 14.689zM642.342 283.517c-20.751-2.8-41.5-6.062-62.019-9.326v-21.217c20.751 4.2 41.268 8.16 62.019 11.658zM738.635 294.941c-20.751-2.1-41.735-4.43-62.486-6.995v-17.719c20.751 3.264 41.735 6.3 62.486 8.86zM835.395 302.868c-20.984-1.4-41.968-2.8-62.719-4.663V283.05c20.984 2.332 41.735 4.2 62.719 5.829zM932.387 307.066c-20.984-.466-41.968-1.4-62.952-2.332v-13.523c20.984 1.4 41.968 2.332 62.952 3.031zM1029.379 307.765q-31.476.35-62.952 0v-12.824q31.476.35 62.952 0zM1126.372 304.734c-20.984.933-41.968 1.865-62.952 2.332v-13.057c20.984-.7 41.968-1.632 62.952-3.031zM1223.131 298.205c-20.984 1.865-41.735 3.5-62.719 4.663v-13.989c20.984-1.632 41.968-3.5 62.719-5.829zM1319.657 287.947a2822.035 2822.035 0 01-62.485 6.995v-16.088c20.751-2.565 41.735-5.6 62.485-8.86zM1415.484 273.957c-20.751 3.5-41.268 6.528-62.019 9.326v-18.885c20.751-3.5 41.5-7.461 62.019-11.658zM1510.611 256.471c-20.518 4.2-41.035 8.16-61.553 11.658v-22.616q30.776-6.995 61.553-14.689zM1604.806 235.486c-20.284 4.9-40.569 9.559-61.086 14.222V222.43c20.518-5.6 40.8-11.425 61.086-17.72zM1698.068 210.772c-20.051 5.829-40.1 11.191-60.387 16.554v-32.874c20.284-6.528 40.336-13.29 60.387-20.518zM1790.164 182.327q-29.727 9.793-59.455 18.886v-39.4c20.051-7.461 39.87-15.388 59.455-23.549zM1880.861 150.386c-19.352 7.228-38.937 14.456-58.755 21.217v-46.864c19.585-8.394 39.17-17.253 58.755-26.347zM1970.159 114.713c-19.119 8.16-38.237 15.855-57.589 23.549V83.004c19.352-9.56 38.471-19.352 57.589-29.378zM83.236 221.031c-19.352-4.663-38.47-9.559-57.589-14.688v-61.087c19.119 6.995 38.237 13.989 57.589 20.518zM173.467 241.783q-29.378-6.3-58.755-13.29v-52.227c19.352 6.3 38.937 12.59 58.755 18.419zM265.098 260.435c-20.051-3.73-39.869-7.694-59.455-11.658v-44.066c19.818 5.6 39.636 11.191 59.455 16.554zM357.893 276.522c-20.284-3.264-40.336-6.761-60.387-10.259v-37.071c20.051 5.129 40.1 9.793 60.387 14.456zM451.855 290.512c-20.518-2.8-40.8-5.829-61.087-8.86v-31.01c20.284 4.43 40.569 8.394 61.087 12.357zM546.748 302.402c-20.518-2.332-41.035-4.663-61.553-7.461v-25.647c20.518 3.73 41.035 6.995 61.553 10.259zM642.342 311.729c-20.751-1.865-41.5-3.73-62.019-5.829v-21.217c20.751 3.031 41.268 5.6 62.019 8.16zM738.635 318.957c-20.751-1.4-41.735-2.8-62.486-4.43v-17.72c20.751 2.332 41.735 4.43 62.486 6.062zM835.395 323.853c-20.984-.933-41.968-1.865-62.719-3.031v-15.155a2851.175 2851.175 0 0062.719 4.2zM932.387 326.651c-20.984-.233-41.968-.933-62.952-1.4v-13.522q31.476 1.4 62.952 2.1zM1029.379 326.884q-31.476.35-62.952 0V314.06q31.476.35 62.952 0zM1126.372 325.018q-31.476 1.049-62.952 1.4v-13.056q31.476-.7 62.952-2.1zM1223.131 321.055c-20.984 1.166-41.735 2.1-62.719 3.031V310.1a2724.066 2724.066 0 0062.719-4.2zM1319.657 314.527c-20.751 1.632-41.735 3.031-62.485 4.43v-16.088c20.751-1.865 41.735-3.964 62.485-6.062zM1415.484 305.9c-20.751 2.1-41.268 3.964-62.019 5.829v-18.886c20.751-2.565 41.5-5.363 62.019-8.16zM1510.611 294.942c-20.518 2.565-41.035 5.129-61.553 7.461v-22.616c20.518-3.264 41.035-6.528 61.553-10.259zM1604.806 281.884c-20.284 3.031-40.569 6.062-61.086 8.86v-27.279c20.518-3.964 40.8-7.927 61.086-12.357zM1698.068 266.264c-20.051 3.5-40.1 6.995-60.387 10.259v-32.875c20.284-4.663 40.336-9.326 60.387-14.456zM1790.164 248.544c-19.818 3.964-39.636 7.927-59.455 11.658v-39.4c20.051-5.363 39.87-10.725 59.455-16.554zM1880.861 228.493c-19.352 4.663-38.937 8.86-58.755 13.29v-46.865c19.585-6.062 39.17-12.119 58.755-18.419zM1970.159 206.343c-19.119 5.129-38.237 10.026-57.589 14.689v-55.258c19.352-6.528 38.471-13.523 57.589-20.518z"/>
      <g>
        <path d="M83.236 303.801c-19.352-1.865-38.47-3.963-57.589-5.828v-61.087c19.119 3.964 38.237 7.927 57.589 11.658zM173.467 312.195c-19.585-1.632-39.17-3.5-58.755-5.363v-52.226q29.028 5.6 58.755 10.492zM265.098 319.656c-20.051-1.4-39.869-3.031-59.455-4.663v-44.066c19.818 3.264 39.636 6.3 59.455 9.326zM357.893 325.951c-20.284-1.4-40.336-2.565-60.387-4.2v-37.068c20.051 2.8 40.1 5.6 60.387 8.16zM451.855 331.547c-20.518-1.166-40.8-2.332-61.087-3.5V297.04c20.284 2.565 40.569 4.9 61.087 6.995zM546.748 336.443c-20.518-.933-41.035-1.865-61.553-3.031v-25.647c20.518 2.1 41.035 3.964 61.553 5.829zM642.342 340.174c-20.751-.7-41.5-1.4-62.019-2.332v-21.217c20.751 1.632 41.268 3.264 62.019 4.663zM738.635 342.971c-20.751-.466-41.735-1.166-62.486-1.865v-17.72c20.751 1.4 41.735 2.565 62.486 3.5zM835.395 345.07c-20.984-.233-41.968-.7-62.719-1.166v-15.155c20.984.933 41.735 1.632 62.719 2.332zM932.387 346.002c-20.984-.233-41.968-.233-62.952-.7V331.78c20.984.466 41.968.933 62.952 1.166zM1029.379 346.236h-62.952v-12.824q31.476.35 62.952 0zM1126.372 345.536l-62.952.7v-13.057c20.984-.233 41.968-.7 62.952-1.166zM1223.131 343.904c-20.984.466-41.735.933-62.719 1.166v-13.989c20.984-.7 41.968-1.4 62.719-2.332zM1319.657 341.34c-20.751.7-41.735 1.166-62.485 1.865V327.12c20.751-.933 41.735-2.332 62.485-3.5zM1415.484 337.842c-20.751.933-41.268 1.632-62.019 2.332v-18.886c20.751-1.4 41.5-3.031 62.019-4.663zM1510.611 333.412c-20.518.933-41.035 2.1-61.553 3.031v-22.616c20.518-1.865 41.035-3.731 61.553-5.829zM1604.806 328.049c-20.284 1.166-40.569 2.332-61.086 3.5v-27.281c20.518-2.332 40.8-4.663 61.086-6.995zM1698.068 321.988c-20.051 1.4-40.1 2.8-60.387 4.2v-32.879c20.284-2.565 40.336-5.363 60.387-8.16zM1790.164 314.759c-19.818 1.632-39.636 3.264-59.455 4.663v-39.4c20.051-3.031 39.87-6.062 59.455-9.326zM1880.861 306.833c-19.352 1.865-38.937 3.5-58.755 5.363v-46.865l58.755-10.492zM1970.159 297.973c-19.119 2.1-38.237 3.964-57.589 5.829v-55.258c19.352-3.73 38.471-7.694 57.589-11.658z"/>
      </g>
      <g transform="translate(25.647 328.283)">
        <path d="M57.589 58.289C38.237 59.222 19.118 60.154 0 61.32V.233c19.119.933 38.237 2.1 57.589 3.031zM147.82 54.092c-19.585.933-39.17 1.632-58.755 2.565V4.43c19.352.933 38.937 1.865 58.755 2.565zM239.451 50.595c-20.051.7-39.869 1.632-59.455 2.332V8.86c19.818.7 39.636 1.632 59.455 2.332zM332.246 47.33c-20.284.7-40.336 1.4-60.387 2.1V12.357c20.051.7 40.1 1.4 60.387 2.1zM426.208 44.532c-20.518.466-40.8 1.166-61.087 1.865V15.388c20.284.7 40.569 1.166 61.087 1.865zM521.101 42.201l-61.553 1.4V17.953l61.553 1.4zM616.695 40.102c-20.751.466-41.5.7-62.019 1.166V20.051c20.751.466 41.268.7 62.019 1.166zM712.988 38.704c-20.751.233-41.735.466-62.486.933v-17.72c20.751.233 41.735.7 62.486.933zM809.748 37.771c-20.984.233-41.968.466-62.719.7V23.315l62.719.7zM906.74 37.305c-20.984 0-41.968.233-62.952.233V24.015c20.984.233 41.968.233 62.952.233z"/>
        <ellipse cx="44.533" cy="9.093" rx="44.533" ry="9.093" transform="translate(927.724 21.683)"/>
        <path d="M1100.725 37.538c-20.984-.233-41.968-.233-62.952-.233V24.248c20.984 0 41.968-.233 62.952-.233zM1197.484 38.47l-62.719-.7V23.782c20.984-.233 41.968-.466 62.719-.7zM1294.01 39.636c-20.751-.233-41.735-.7-62.485-.933V22.616c20.751-.233 41.735-.466 62.485-.933zM1389.837 41.268c-20.751-.466-41.268-.7-62.019-1.166V21.217c20.751-.466 41.5-.7 62.019-1.166zM1484.964 43.6l-61.553-1.4V19.586l61.553-1.4zM1579.159 46.165c-20.284-.7-40.569-1.166-61.086-1.865V17.02c20.518-.466 40.8-1.166 61.086-1.865zM1672.421 49.196c-20.051-.7-40.1-1.4-60.387-2.1V14.224c20.284-.7 40.336-1.4 60.387-2.1zM1764.517 52.926c-19.818-.7-39.636-1.632-59.455-2.332v-39.4c20.051-.7 39.87-1.632 59.455-2.332zM1855.214 56.89c-19.352-.933-38.937-1.865-58.755-2.565V7.461c19.585-.933 39.17-1.632 58.755-2.565zM1944.512 61.32c-19.119-.933-38.237-2.1-57.589-3.031V3.031c19.352-.933 38.471-1.865 57.589-3.031z"/>
      </g>
      <g>
        <path d="M83.236 469.342c-19.352 3.73-38.471 7.694-57.589 11.658v-61.087c19.119-2.1 38.237-3.964 57.589-5.829zM173.467 452.79l-58.755 10.489v-52.226c19.352-1.865 38.937-3.5 58.755-5.363zM265.098 438.096c-20.051 3.031-39.869 6.062-59.455 9.326v-44.063c19.818-1.632 39.636-3.264 59.455-4.663zM357.893 425.042c-20.284 2.565-40.336 5.363-60.387 8.16v-37.068c20.051-1.4 40.1-2.8 60.387-4.2zM451.855 413.851a47952.19 47952.19 0 00-61.087 6.995v-31.007c20.284-1.166 40.569-2.332 61.087-3.5zM546.748 404.291c-20.518 1.865-41.035 3.731-61.553 5.829v-25.647c20.518-.933 41.035-2.1 61.553-3.031zM642.342 396.831c-20.751 1.4-41.5 3.031-62.019 4.663v-21.217c20.751-.933 41.268-1.632 62.019-2.332zM738.635 391.002c-20.751.933-41.735 2.332-62.486 3.5v-17.72c20.751-.7 41.735-1.166 62.486-1.865zM835.395 387.038c-20.984.7-41.968 1.4-62.719 2.332v-15.155c20.984-.466 41.735-.933 62.719-1.166zM932.387 384.94c-20.984.233-41.968.7-62.952 1.166v-13.523l62.952-.7zM1029.379 384.707q-31.476-.35-62.952 0v-12.824h62.952zM1126.372 386.105c-20.984-.466-41.968-.933-62.952-1.166v-13.056c20.984.233 41.968.233 62.952.7zM1223.131 389.603c-20.984-.933-41.735-1.632-62.719-2.332v-13.989c20.984.233 41.968.7 62.719 1.166zM1319.657 394.499a2812.443 2812.443 0 00-62.485-3.5v-16.085c20.751.466 41.735 1.166 62.485 1.865zM1415.484 401.494c-20.751-1.632-41.268-3.264-62.019-4.663v-18.886c20.751.7 41.5 1.4 62.019 2.332zM1510.611 410.354c-20.518-2.1-41.035-3.964-61.553-5.829v-22.616c20.518.933 41.035 1.865 61.553 3.031zM1604.806 420.846a2553.788 2553.788 0 00-61.086-6.995v-27.279c20.518 1.166 40.8 2.332 61.086 3.5zM1698.068 433.202c-20.051-2.8-40.1-5.6-60.387-8.16v-32.875c20.284 1.4 40.336 2.565 60.387 4.2zM1790.164 447.425c-19.818-3.264-39.636-6.3-59.455-9.326v-39.403c20.051 1.4 39.87 3.031 59.455 4.663zM1880.861 463.28q-29.028-5.6-58.755-10.492v-46.864c19.585 1.632 39.17 3.5 58.755 5.363zM1970.159 481.232c-19.119-3.964-38.237-7.927-57.589-11.658v-55.257c19.352 1.865 38.471 3.964 57.589 5.829z"/>
      </g>
      <g>
        <path d="M83.236 552.344c-19.352 6.528-38.47 13.523-57.589 20.517v-61.086c19.119-5.129 38.237-10.026 57.589-14.689zM173.467 523.202c-19.585 6.062-39.17 12.124-58.755 18.419v-52.229q29.028-6.995 58.755-13.29zM265.098 497.32c-20.055 5.363-39.87 10.73-59.455 16.554v-44.066c19.818-3.964 39.636-7.927 59.455-11.658zM357.893 474.471c-20.287 4.663-40.336 9.325-60.387 14.455v-37.071c20.051-3.5 40.1-6.995 60.387-10.259zM451.855 454.885c-20.518 3.964-40.8 7.927-61.087 12.357v-31.009c20.284-3.031 40.569-6.062 61.087-8.86zM546.748 438.331c-20.518 3.264-41.035 6.528-61.553 10.259v-25.647c20.518-2.565 41.035-5.129 61.553-7.461zM642.342 425.275c-20.751 2.565-41.5 5.363-62.019 8.16v-21.217c20.751-2.1 41.268-3.964 62.019-5.829zM738.635 415.016c-20.751 1.865-41.735 3.964-62.486 6.062v-17.72c20.751-1.632 41.735-3.031 62.486-4.43zM835.395 408.254a2724.066 2724.066 0 00-62.719 4.2v-15.158c20.984-1.166 41.735-2.1 62.719-3.031zM932.387 404.524q-31.476.7-62.952 2.1V393.1q31.476-1.049 62.952-1.4zM1029.379 403.824q-31.476-.35-62.952 0v-12.823q31.476-.35 62.952 0zM1126.372 406.622q-31.476-1.4-62.952-2.1v-13.055c20.984.233 41.968.933 62.952 1.4zM1223.131 412.451a2851.175 2851.175 0 00-62.719-4.2v-13.986c20.984.933 41.968 1.865 62.719 3.031zM1319.657 421.311c-20.751-2.332-41.735-4.43-62.485-6.062v-16.088c20.751 1.4 41.735 2.8 62.485 4.43zM1415.484 433.435c-20.751-3.031-41.268-5.6-62.019-8.16v-18.886c20.751 1.865 41.5 3.731 62.019 5.829zM1510.611 448.823c-20.518-3.73-41.035-6.995-61.553-10.259v-22.616c20.518 2.332 41.035 4.663 61.553 7.461zM1604.806 467.242c-20.284-4.43-40.569-8.394-61.086-12.357v-27.279c20.518 2.8 40.8 5.829 61.086 8.86zM1698.068 488.925c-20.051-5.129-40.1-9.793-60.387-14.456v-32.874c20.284 3.264 40.336 6.761 60.387 10.259zM1790.164 513.64c-19.818-5.6-39.636-11.191-59.455-16.554v-39.403c20.051 3.731 39.87 7.694 59.455 11.658zM1880.861 541.619c-19.352-6.3-38.937-12.59-58.755-18.419v-46.864q29.378 6.3 58.755 13.29zM1970.159 572.861c-19.119-6.995-38.237-13.989-57.589-20.518v-55.257c19.352 4.663 38.471 9.559 57.589 14.689z"/>
      </g>
      <g>
        <path d="M83.236 635.115c-19.352 9.559-38.47 19.352-57.589 29.377v-61.086c19.119-8.16 38.237-15.855 57.589-23.549zM173.467 593.382c-19.585 8.394-39.17 17.253-58.755 26.346v-52.229c19.352-7.228 38.937-14.456 58.755-21.217zM265.098 556.305c-20.051 7.461-39.869 15.388-59.455 23.549v-44.063q29.727-9.793 59.455-18.886zM357.893 523.899c-20.284 6.528-40.336 13.29-60.387 20.518v-37.072c20.051-5.829 40.1-11.191 60.387-16.554zM451.855 495.92c-20.518 5.6-40.8 11.425-61.087 17.72v-31.01c20.284-4.9 40.569-9.559 61.087-14.222zM546.748 472.372q-30.777 6.995-61.553 14.684v-25.642c20.518-4.2 41.035-8.16 61.553-11.658zM642.342 453.487c-20.751 3.5-41.5 7.461-62.019 11.658v-21.218c20.751-3.5 41.268-6.528 62.019-9.326zM738.635 439.265c-20.751 2.565-41.735 5.6-62.486 8.86v-17.72c20.751-2.565 41.735-4.9 62.486-6.995zM835.395 429.238c-20.984 1.632-41.968 3.5-62.719 5.829v-15.155c20.984-1.865 41.735-3.5 62.719-4.663zM932.387 423.876c-20.984.7-41.968 1.632-62.952 3.031v-13.523c20.984-.933 41.968-1.865 62.952-2.332zM1029.379 423.176q-31.476-.35-62.952 0v-12.823q31.476-.35 62.952 0zM1126.372 426.907c-20.984-1.4-41.968-2.332-62.952-3.031v-13.057c20.984.466 41.968 1.4 62.952 2.332zM1223.131 435.067c-20.984-2.332-41.735-4.2-62.719-5.829v-13.989c20.984 1.4 41.968 2.8 62.719 4.663zM1319.657 447.891c-20.751-3.264-41.735-6.3-62.485-8.86v-16.088c20.751 2.1 41.735 4.43 62.485 6.995zM1415.484 465.377c-20.751-4.2-41.268-8.16-62.019-11.658v-18.885c20.751 2.8 41.5 6.062 62.019 9.326zM1510.611 487.056q-30.776-7.694-61.553-14.689v-22.611c20.518 3.73 41.035 7.694 61.553 11.658zM1604.806 513.642c-20.284-6.3-40.569-12.124-61.086-17.72v-27.28c20.518 4.43 40.8 9.093 61.086 14.222zM1698.068 544.418c-20.051-7.228-40.1-13.989-60.387-20.518v-32.875c20.284 5.129 40.336 10.725 60.387 16.554zM1790.164 579.857c-19.818-8.16-39.636-16.088-59.455-23.549v-39.403q30.077 9.093 59.455 18.886zM1880.861 619.96c-19.352-9.093-38.937-17.953-58.755-26.347v-46.864c19.585 6.761 39.17 13.756 58.755 21.217zM1970.159 664.492c-19.119-10.026-38.237-19.818-57.589-29.378v-55.257c19.352 7.694 38.471 15.388 57.589 23.549z"/>
      </g>
    </g>
    <g opacity=".43">
      <path d="M57.589 84.635C38.237 76.941 19.119 69.247 0 61.087V0c19.119 10.026 38.237 19.818 57.589 29.378zM154.815 108.417c-19.585-6.762-39.17-13.756-58.755-21.217V34.973q29.378 13.989 58.755 26.58zM240.616 114.946q-30.077-9.093-59.455-18.886V51.994c19.818 8.16 39.636 16.088 59.455 23.549zM318.256 159.478c-20.287-5.126-40.336-10.726-60.387-16.554v-37.072c20.051 7.228 40.1 13.989 60.387 20.518zM422.244 165.54c-20.518-4.43-40.8-9.093-61.087-14.222v-31.01c20.284 6.3 40.569 12.124 61.087 17.72zM521.102 205.405c-20.518-3.73-41.035-7.694-61.553-11.658v-25.642q30.776 7.694 61.553 14.689zM621.358 180.928c-20.751-2.8-41.5-6.062-62.019-9.326v-21.217c20.751 4.2 41.268 8.16 62.019 11.658zM713.688 214.968c-20.751-2.1-41.735-4.43-62.486-6.995v-17.719c20.751 3.264 41.735 6.3 62.486 8.86zM796.458 240.616c-20.984-1.4-41.968-2.8-62.719-4.663v-15.155c20.984 2.332 41.735 4.2 62.719 5.829zM903.476 227.093c-20.984-.466-41.968-1.4-62.952-2.332v-13.523c20.984 1.4 41.968 2.332 62.952 3.031zM992.774 248.544q-31.476.35-62.952 0V235.72q31.476.35 62.952 0zM1098.393 225.461c-20.984.933-41.968 1.865-62.952 2.332v-13.057c20.984-.7 41.968-1.632 62.952-3.031zM1197.484 235.953c-20.984 1.865-41.735 3.5-62.719 4.663v-13.989c20.984-1.632 41.968-3.5 62.719-5.829zM1290.746 200.747a2822.035 2822.035 0 01-62.485 6.995v-16.088c20.751-2.565 41.735-5.6 62.485-8.86zM1389.837 220.331c-20.751 3.5-41.268 6.528-62.019 9.326v-18.885c20.751-3.498 41.5-7.458 62.019-11.658zM1468.643 166.473c-20.518 4.2-41.035 8.16-61.553 11.658v-22.616q30.776-6.995 61.553-14.689zM1579.159 181.86c-20.285 4.9-40.569 9.559-61.087 14.222v-27.278c20.518-5.6 40.8-11.425 61.087-17.72zM1692.705 133.83c-20.051 5.829-40.1 11.191-60.387 16.554V117.51c20.285-6.528 40.336-13.29 60.387-20.518zM1764.518 128.701q-29.728 9.793-59.455 18.886v-39.4c20.051-7.461 39.87-15.388 59.455-23.549zM1855.214 96.76c-19.355 7.227-38.937 14.455-58.755 21.217V71.113c19.585-8.394 39.17-17.253 58.755-26.347zM1944.512 61.087c-19.119 8.16-38.237 15.855-57.589 23.549V29.378c19.119-9.56 38.471-19.352 57.589-29.378zM57.589 167.405c-19.352-4.663-38.47-9.559-57.589-14.688V91.63c19.119 6.995 38.237 13.989 57.589 20.518zM147.82 188.157q-29.378-6.3-58.755-13.29V122.64c19.352 6.3 38.937 12.59 58.755 18.419zM239.451 206.809c-20.051-3.73-39.87-7.694-59.455-11.658v-44.066c19.818 5.6 39.636 11.191 59.455 16.554zM332.246 222.896c-20.284-3.264-40.336-6.761-60.387-10.259v-37.071c20.051 5.129 40.1 9.792 60.387 14.456zM426.208 236.886c-20.518-2.8-40.8-5.829-61.087-8.86v-31.01c20.284 4.43 40.569 8.394 61.087 12.357zM521.102 248.776c-20.518-2.332-41.035-4.663-61.553-7.461v-25.647c20.518 3.73 41.035 6.995 61.553 10.259zM616.695 258.103c-20.751-1.865-41.5-3.73-62.019-5.829v-21.217c20.751 3.031 41.268 5.6 62.019 8.16zM712.988 265.331c-20.751-1.4-41.735-2.8-62.486-4.43v-17.72c20.751 2.332 41.735 4.43 62.486 6.062zM809.748 270.227c-20.984-.933-41.968-1.865-62.719-3.031v-15.155a2851.175 2851.175 0 0062.719 4.2zM906.74 273.025c-20.984-.233-41.968-.933-62.952-1.4v-13.522q31.476 1.4 62.952 2.1zM1003.732 273.258q-31.476.35-62.952 0v-12.824q31.476.35 62.952 0zM1100.725 271.392q-31.476 1.049-62.952 1.4v-13.056q31.476-.7 62.952-2.1zM1197.484 267.429c-20.984 1.166-41.735 2.1-62.719 3.031v-13.986a2724.066 2724.066 0 0062.719-4.2zM1294.01 260.901c-20.751 1.632-41.735 3.031-62.485 4.43v-16.088c20.751-1.865 41.735-3.964 62.485-6.062zM1389.837 252.274c-20.751 2.1-41.268 3.964-62.019 5.829v-18.886c20.751-2.565 41.5-5.363 62.019-8.16zM1484.964 241.316c-20.518 2.565-41.035 5.129-61.553 7.461v-22.616c20.518-3.264 41.035-6.528 61.553-10.259zM1579.159 228.258c-20.285 3.031-40.569 6.062-61.087 8.86v-27.279c20.518-3.964 40.8-7.927 61.087-12.357zM1661.696 202.612c-20.051 3.5-40.1 6.995-60.387 10.259v-32.875c20.285-4.663 40.336-9.326 60.387-14.456zM1764.518 194.918c-19.818 3.964-39.636 7.927-59.455 11.658v-39.4c20.051-5.363 39.87-10.725 59.455-16.554zM1855.214 174.867c-19.352 4.663-38.937 8.86-58.755 13.29v-46.865c19.585-6.062 39.17-12.119 58.755-18.419zM1944.512 152.717c-19.119 5.129-38.237 10.026-57.589 14.689v-55.258c19.352-6.528 38.471-13.523 57.589-20.518z"/>
      <g>
        <path d="M57.589 250.175c-19.352-1.865-38.47-3.963-57.589-5.828V183.26c19.119 3.964 38.237 7.927 57.589 11.658zM147.82 258.569c-19.585-1.632-39.17-3.5-58.755-5.363V200.98q29.028 5.6 58.755 10.492zM239.451 266.03c-20.051-1.4-39.87-3.031-59.455-4.663v-44.066c19.818 3.264 39.636 6.3 59.455 9.326zM332.246 272.325c-20.284-1.4-40.336-2.565-60.387-4.2v-37.068c20.051 2.8 40.1 5.6 60.387 8.16zM426.208 277.921c-20.518-1.166-40.8-2.332-61.087-3.5v-31.007c20.284 2.565 40.569 4.9 61.087 6.995zM521.102 282.817c-20.518-.933-41.035-1.865-61.553-3.031v-25.647c20.518 2.1 41.035 3.964 61.553 5.829zM616.695 286.548c-20.751-.7-41.5-1.4-62.019-2.332v-21.217c20.751 1.632 41.268 3.264 62.019 4.663zM712.988 289.345c-20.751-.466-41.735-1.166-62.486-1.865v-17.72c20.751 1.4 41.735 2.565 62.486 3.5zM809.748 291.444c-20.984-.233-41.968-.7-62.719-1.166v-15.155c20.984.933 41.735 1.632 62.719 2.332zM906.74 292.376c-20.984-.233-41.968-.233-62.952-.7v-13.522c20.984.466 41.968.933 62.952 1.166zM1003.732 292.61H940.78v-12.824q31.476.35 62.952 0zM1100.725 291.91l-62.952.7v-13.057c20.984-.233 41.968-.7 62.952-1.166zM1209.142 288.646c-20.984.466-41.735.933-62.719 1.166v-13.989c20.984-.7 41.968-1.4 62.719-2.332zM1294.01 287.714c-20.751.7-41.735 1.166-62.485 1.865v-16.085c20.751-.933 41.735-2.332 62.485-3.5zM1389.837 284.216c-20.751.933-41.268 1.632-62.019 2.332v-18.886c20.751-1.4 41.5-3.031 62.019-4.663zM1484.964 279.786c-20.518.933-41.035 2.1-61.553 3.031v-22.616c20.518-1.865 41.035-3.73 61.553-5.829zM1579.159 274.423c-20.285 1.166-40.569 2.332-61.087 3.5v-27.281c20.518-2.332 40.8-4.663 61.087-6.995zM1672.421 268.361c-20.051 1.4-40.1 2.8-60.387 4.2v-32.878c20.284-2.565 40.336-5.363 60.387-8.16zM1764.518 261.133c-19.818 1.632-39.636 3.264-59.455 4.663v-39.4c20.051-3.031 39.87-6.062 59.455-9.326zM1855.214 253.207c-19.352 1.865-38.937 3.5-58.755 5.363v-46.865l58.755-10.492zM1944.512 244.347c-19.119 2.1-38.237 3.964-57.589 5.829v-55.258c19.352-3.73 38.471-7.694 57.589-11.658z"/>
      </g>
      <g transform="translate(0 274.657)">
        <path d="M57.589 58.289C38.237 59.222 19.118 60.154 0 61.32V.233c19.119.933 38.237 2.1 57.589 3.031zM147.82 54.092c-19.585.933-39.17 1.632-58.755 2.565V4.43c19.352.933 38.937 1.865 58.755 2.565zM239.451 50.595c-20.051.7-39.87 1.632-59.455 2.332V8.86c19.818.7 39.636 1.632 59.455 2.332zM332.246 47.33c-20.284.7-40.336 1.4-60.387 2.1V12.357c20.051.7 40.1 1.4 60.387 2.1zM426.208 44.532c-20.518.466-40.8 1.166-61.087 1.865V15.388c20.284.7 40.569 1.166 61.087 1.865zM521.102 42.201l-61.553 1.4V17.953l61.553 1.4zM616.695 40.102c-20.751.466-41.5.7-62.019 1.166V20.051c20.751.466 41.268.7 62.019 1.166zM712.988 38.704c-20.751.233-41.735.466-62.486.933v-17.72c20.751.233 41.735.7 62.486.933zM809.748 37.771c-20.984.233-41.968.466-62.719.7V23.315l62.719.7zM906.74 37.305c-20.984 0-41.968.233-62.952.233V24.015c20.984.233 41.968.233 62.952.233z"/>
        <ellipse cx="44.533" cy="9.093" rx="44.533" ry="9.093" transform="translate(927.724 21.683)"/>
        <path d="M1100.725 37.538c-20.984-.233-41.968-.233-62.952-.233V24.248c20.984 0 41.968-.233 62.952-.233zM1197.484 38.47l-62.719-.7V23.782c20.984-.233 41.968-.466 62.719-.7zM1294.01 39.636c-20.751-.233-41.735-.7-62.485-.933V22.616c20.751-.233 41.735-.466 62.485-.933zM1389.837 41.268c-20.751-.466-41.268-.7-62.019-1.166V21.217c20.751-.466 41.5-.7 62.019-1.166zM1484.964 43.6l-61.553-1.4V19.586l61.553-1.4zM1579.159 46.165c-20.285-.7-40.569-1.166-61.087-1.865V17.02c20.518-.466 40.8-1.166 61.087-1.865zM1672.421 49.196c-20.051-.7-40.1-1.4-60.387-2.1V14.224c20.284-.7 40.336-1.4 60.387-2.1zM1764.518 52.926c-19.818-.7-39.636-1.632-59.455-2.332v-39.4c20.051-.7 39.87-1.632 59.455-2.332zM1855.214 56.89c-19.352-.933-38.937-1.865-58.755-2.565V7.461c19.585-.933 39.17-1.632 58.755-2.565zM1944.512 61.32c-19.119-.933-38.237-2.1-57.589-3.031V3.031c19.352-.933 38.471-1.865 57.589-3.031z"/>
      </g>
      <g>
        <path d="M57.589 415.716c-19.352 3.73-38.47 7.694-57.589 11.657v-61.086c19.119-2.1 38.237-3.964 57.589-5.829zM147.82 399.164l-58.755 10.489v-52.226c19.352-1.865 38.937-3.5 58.755-5.363zM239.451 384.47c-20.051 3.031-39.87 6.062-59.455 9.326v-44.063c19.818-1.632 39.636-3.264 59.455-4.663zM332.246 371.416c-20.284 2.565-40.336 5.363-60.387 8.16v-37.068c20.051-1.4 40.1-2.8 60.387-4.2zM426.208 360.225a47952.19 47952.19 0 00-61.087 6.995v-31.007c20.284-1.166 40.569-2.332 61.087-3.5zM521.102 350.665c-20.518 1.865-41.035 3.73-61.553 5.829v-25.647c20.518-.933 41.035-2.1 61.553-3.031zM616.695 343.205c-20.751 1.4-41.5 3.031-62.019 4.663v-21.217c20.751-.933 41.268-1.632 62.019-2.332zM712.988 337.376c-20.751.933-41.735 2.332-62.486 3.5v-17.72c20.751-.7 41.735-1.166 62.486-1.865zM809.748 333.412c-20.984.7-41.968 1.4-62.719 2.332v-15.155c20.984-.466 41.735-.933 62.719-1.166zM906.74 331.314c-20.984.233-41.968.7-62.952 1.166v-13.523l62.952-.7zM1003.732 331.081q-31.476-.35-62.952 0v-12.824h62.952zM1100.725 332.479c-20.984-.466-41.968-.933-62.952-1.166v-13.056c20.984.233 41.968.233 62.952.7zM1197.484 335.977c-20.984-.933-41.735-1.632-62.719-2.332v-13.989c20.984.233 41.968.7 62.719 1.166zM1294.01 340.873a2812.443 2812.443 0 00-62.485-3.5v-16.085c20.751.466 41.735 1.166 62.485 1.865zM1389.837 347.868c-20.751-1.632-41.268-3.264-62.019-4.663v-18.886c20.751.7 41.5 1.4 62.019 2.332zM1484.964 356.728c-20.518-2.1-41.035-3.964-61.553-5.829v-22.616c20.518.933 41.035 1.865 61.553 3.031zM1579.159 367.22a2553.873 2553.873 0 00-61.087-6.995v-27.279c20.518 1.166 40.8 2.332 61.087 3.5zM1672.421 379.576c-20.051-2.8-40.1-5.6-60.387-8.16v-32.875c20.284 1.4 40.336 2.565 60.387 4.2zM1764.518 393.799c-19.818-3.264-39.636-6.3-59.455-9.326V345.07c20.051 1.4 39.87 3.031 59.455 4.663zM1855.214 409.654q-29.028-5.6-58.755-10.492v-46.864c19.585 1.632 39.17 3.5 58.755 5.363zM1944.512 427.606c-19.119-3.964-38.237-7.927-57.589-11.658v-55.257c19.352 1.865 38.471 3.964 57.589 5.829z"/>
      </g>
      <g>
        <path d="M57.589 498.718C38.237 505.246 19.119 512.241 0 519.235v-61.086c19.119-5.129 38.237-10.026 57.589-14.689zM147.82 469.576c-19.585 6.062-39.17 12.124-58.755 18.419v-52.229q29.028-6.99 58.755-13.29zM239.451 443.694c-20.055 5.363-39.87 10.73-59.455 16.554v-44.066c19.818-3.964 39.636-7.927 59.455-11.658zM332.246 420.845c-20.287 4.663-40.336 9.325-60.387 14.455v-37.071c20.051-3.5 40.1-6.995 60.387-10.259zM426.208 401.259c-20.518 3.964-40.8 7.927-61.087 12.357v-31.009c20.284-3.031 40.569-6.062 61.087-8.86zM521.102 384.705c-20.518 3.264-41.035 6.528-61.553 10.259v-25.647c20.518-2.565 41.035-5.129 61.553-7.461zM616.695 371.649c-20.751 2.565-41.5 5.363-62.019 8.16v-21.217c20.751-2.1 41.268-3.964 62.019-5.829zM712.988 361.39c-20.751 1.865-41.735 3.964-62.486 6.062v-17.72c20.751-1.632 41.735-3.031 62.486-4.43zM809.748 354.628a2724.066 2724.066 0 00-62.719 4.2V343.67c20.984-1.166 41.735-2.1 62.719-3.031zM906.74 350.898q-31.476.7-62.952 2.1v-13.524q31.476-1.049 62.952-1.4zM1003.732 350.198q-31.476-.35-62.952 0v-12.823q31.476-.35 62.952 0zM1100.725 352.996q-31.476-1.4-62.952-2.1v-13.055c20.984.233 41.968.933 62.952 1.4zM1197.484 358.825a2851.175 2851.175 0 00-62.719-4.2v-13.986c20.984.933 41.968 1.865 62.719 3.031zM1294.01 367.685c-20.751-2.332-41.735-4.43-62.485-6.062v-16.088c20.751 1.4 41.735 2.8 62.485 4.43zM1389.837 379.809c-20.751-3.031-41.268-5.6-62.019-8.16v-18.886c20.751 1.865 41.5 3.73 62.019 5.829zM1484.964 395.197c-20.518-3.731-41.035-6.995-61.553-10.259v-22.616c20.518 2.332 41.035 4.663 61.553 7.461zM1579.159 413.616c-20.285-4.43-40.569-8.394-61.087-12.357V373.98c20.518 2.8 40.8 5.829 61.087 8.86zM1672.421 435.3c-20.051-5.129-40.1-9.793-60.387-14.456V387.97c20.284 3.264 40.336 6.762 60.387 10.259zM1764.518 460.014c-19.818-5.6-39.636-11.191-59.455-16.554v-39.403c20.051 3.73 39.87 7.694 59.455 11.658zM1855.214 487.993c-19.352-6.3-38.937-12.59-58.755-18.419V422.71q29.378 6.3 58.755 13.29zM1944.512 519.235c-19.119-6.995-38.237-13.989-57.589-20.518V443.46c19.352 4.663 38.471 9.559 57.589 14.689z"/>
      </g>
      <g>
        <path d="M57.589 581.489C38.237 590.815 19.119 600.608 0 610.866V549.78c19.119-8.16 38.237-15.855 57.589-23.549zM147.82 539.756c-19.585 8.394-39.17 17.253-58.755 26.347v-52.23c19.352-7.228 38.937-14.456 58.755-21.217zM239.451 502.679c-20.051 7.461-39.87 15.388-59.455 23.549v-44.063q29.727-9.793 59.455-18.886zM332.246 470.273c-20.284 6.528-40.336 13.29-60.387 20.518v-37.072c20.051-5.829 40.1-11.191 60.387-16.554zM426.208 442.294c-20.518 5.6-40.8 11.425-61.087 17.72v-31.01c20.284-4.9 40.569-9.559 61.087-14.222zM521.102 418.746q-30.777 6.995-61.553 14.684v-25.642c20.518-4.2 41.035-8.16 61.553-11.658zM616.695 399.861c-20.751 3.5-41.5 7.461-62.019 11.658v-21.218c20.751-3.5 41.268-6.528 62.019-9.326zM712.988 385.639c-20.751 2.565-41.735 5.6-62.486 8.86v-17.72c20.751-2.565 41.735-4.9 62.486-6.995zM809.748 375.612c-20.984 1.632-41.968 3.5-62.719 5.829v-15.155c20.984-1.865 41.735-3.5 62.719-4.663zM906.74 370.25c-20.984.7-41.968 1.632-62.952 3.031v-13.523c20.984-.933 41.968-1.865 62.952-2.332zM1003.732 369.55q-31.476-.35-62.952 0v-12.823q31.476-.35 62.952 0zM1100.725 373.281c-20.984-1.4-41.968-2.332-62.952-3.031v-13.057c20.984.466 41.968 1.4 62.952 2.332zM1197.484 381.441c-20.984-2.332-41.735-4.2-62.719-5.829v-13.989c20.984 1.4 41.968 2.8 62.719 4.663zM1294.01 394.265c-20.751-3.264-41.735-6.3-62.485-8.86v-16.088c20.751 2.1 41.735 4.43 62.485 6.995zM1389.837 411.751c-20.751-4.2-41.268-8.16-62.019-11.658v-18.885c20.751 2.8 41.5 6.062 62.019 9.326zM1484.964 433.43q-30.776-7.694-61.553-14.689V396.13c20.518 3.73 41.035 7.694 61.553 11.658zM1579.159 460.016c-20.285-6.3-40.569-12.124-61.087-17.72v-27.28c20.518 4.43 40.8 9.093 61.087 14.222zM1672.421 490.791c-20.051-7.228-40.1-13.989-60.387-20.518v-32.875c20.284 5.129 40.336 10.725 60.387 16.554zM1764.518 526.231c-19.818-8.16-39.636-16.088-59.455-23.549v-39.403q30.077 9.093 59.455 18.886zM1855.214 566.334c-19.352-9.093-38.937-17.953-58.755-26.346v-46.865c19.585 6.761 39.17 13.756 58.755 21.217zM1944.512 610.866c-19.119-10.026-38.237-19.818-57.589-29.378v-55.257c19.352 7.694 38.471 15.388 57.589 23.549z"/>
      </g>
    </g>
  </g>
</svg>
