<svg xmlns="http://www.w3.org/2000/svg" xmlns:xlink="http://www.w3.org/1999/xlink" width="819.749" height="657.873" viewBox="0 0 819.749 657.873"><defs><style>.a{fill:#eaeaeb;}.b{fill:#4aafff;}.ag,.ah,.c{fill:#fff;}.d{fill:#353a3d;}.e{fill:#81807e;}.f{fill:#2d3133;}.g{fill:#decbc4;}.h{fill:#495055;}.i{fill:#eea886;}.j{fill:#a77860;}.k{fill:#434343;}.l{fill:#5b83c2;}.m{fill:#4e70a6;}.n{fill:#f5e2d9;}.o{fill:#323657;}.p{fill:#ad9f99;}.q{fill:#69737a;}.r{fill:#2f4363;}.s{fill:#e0e0e0;}.t{fill:#1a598c;}.u{fill:#2273b5;}.v{fill:#4dafff;}.al,.w,.x{fill:none;}.w,.x{stroke:#0b2248;stroke-miterlimit:10;stroke-width:0.2px;}.x{stroke-dasharray:0.995 0.995;}.y{fill:url(#c);}.z{fill:url(#d);}.aa{fill:url(#e);}.ab{fill:url(#f);}.ac{fill:url(#g);}.ad{fill:url(#h);}.ae{fill:#353445;font-family:Roboto-Regular, Roboto;}.ae,.ah,.am{font-size:10px;}.af{fill:url(#i);}.ag{font-size:30px;font-family:Montserrat-Bold, Montserrat;font-weight:700;}.ah,.am{font-family:Montserrat-Regular, Montserrat;}.ai{fill:url(#j);}.aj{fill:url(#k);}.ak{fill:url(#l);}.am{fill:#1b1d29;}.an{fill:url(#m);}.ao{filter:url(#a);}</style><filter id="a" x="291" y="61" width="528.749" height="596.873" filterUnits="userSpaceOnUse"><feOffset dy="3" input="SourceAlpha"/><feGaussianBlur stdDeviation="10" result="b"/><feFlood flood-opacity="0.161"/><feComposite operator="in" in2="b"/><feComposite in="SourceGraphic"/></filter><linearGradient id="c" x1="-267.878" y1="-0.072" x2="-267.878" y2="1.001" gradientUnits="objectBoundingBox"><stop offset="0" stop-color="#00c6ff"/><stop offset="1" stop-color="#0072ff"/></linearGradient><linearGradient id="d" x1="-259.489" y1="1.09" x2="-259.489" y2="-0.001" gradientUnits="objectBoundingBox"><stop offset="0" stop-color="#20b5d8"/><stop offset="1" stop-color="#8cee98"/></linearGradient><linearGradient id="e" x1="-251.122" y1="-0.049" x2="-251.122" y2="0.999" xlink:href="#c"/><linearGradient id="f" x1="-242.732" y1="1.105" x2="-242.732" y2="-0.002" xlink:href="#d"/><linearGradient id="g" x1="-234.365" y1="-0.088" x2="-234.365" y2="0.999" xlink:href="#c"/><linearGradient id="h" x1="-225.869" y1="-0.094" x2="-225.869" y2="0.999" gradientUnits="objectBoundingBox"><stop offset="0" stop-color="#8cee98"/><stop offset="1" stop-color="#20b5d8"/></linearGradient><linearGradient id="i" x1="0.5" y1="0.001" x2="0.5" y2="1.003" xlink:href="#h"/><linearGradient id="j" x1="0.5" y1="0.001" x2="0.5" y2="1.003" xlink:href="#c"/><linearGradient id="k" x1="0.499" y1="0.001" x2="0.499" y2="1.003" gradientUnits="objectBoundingBox"><stop offset="0" stop-color="#fc9d00"/><stop offset="1" stop-color="#f3510f"/></linearGradient><linearGradient id="l" x1="-0.006" y1="0.505" x2="1.005" y2="0.505" xlink:href="#d"/><linearGradient id="m" x1="-0.008" y1="0.505" x2="1.003" y2="0.505" xlink:href="#c"/></defs><g transform="translate(-179 -1892)"><g transform="translate(179 1892)"><g transform="translate(38.509 92.453)"><path class="a" d="M366.029,407.15H173.808A18.03,18.03,0,0,1,155.8,389.142V133.008A18.03,18.03,0,0,1,173.808,115H366.029a18.03,18.03,0,0,1,18.008,18.008V389.142A18.134,18.134,0,0,1,366.029,407.15Z" transform="translate(-155.8 -115)"/><g transform="translate(27.27 24.315)"><g transform="translate(0 0)"><rect class="b" width="58.687" height="6.673"/></g></g><g transform="translate(27.269 39.001)"><g transform="translate(0 0)"><g transform="translate(0 0)"><rect class="c" width="43.091" height="6.673"/></g></g></g><g transform="translate(27.247 53.688)"><g transform="translate(0 0)"><g transform="translate(0 0)"><rect class="c" width="105.959" height="6.673"/></g></g></g><g transform="translate(128.63 95.99)"><rect class="b" width="72.676" height="6.673"/></g><g transform="translate(102.904 110.702)"><rect class="c" width="98.402" height="6.673"/></g><g transform="translate(70.103 125.334)"><rect class="c" width="131.202" height="6.673"/></g><g transform="translate(121.234 167.701)"><g transform="translate(0 0)"><rect class="b" width="80.072" height="6.673"/></g></g><g transform="translate(90.604 182.333)"><rect class="c" width="110.702" height="6.673"/></g><g transform="translate(94.945 197.045)"><rect class="c" width="106.361" height="6.673"/></g></g><g transform="translate(0 101.471)"><g transform="translate(89.711 435.072)"><path class="d" d="M339.852,768.268s4.984,7.4,11.9,9,13.828,4.18,13.828,8.522c.08,4.422-20.1,6.994-28.057,2.573-11.9-6.592-13.1-4.583-14.39-7.879s1.608-12.139,1.527-13.185C324.577,766.017,339.852,768.268,339.852,768.268Z" transform="translate(-322.8 -766.906)"/></g><g transform="translate(91.557 430.565)"><path class="e" d="M369.2,763.471s.884,3.618.8,3.618c-.161.08-15.677,1.93-15.194-.965.4-2.331.884-4.824.884-4.824Z" transform="translate(-354.794 -761.3)"/></g><g transform="translate(37.541 434.087)"><path class="d" d="M410.562,767.545s3.537,7.075,9.567,9.486c6.432,2.573,11.657,5.547,11.5,9.808-.08,4.261-15.757,8.6-27.173.4-7.155-5.145-9.486-5.226-10.612-8.441-1.126-3.3,2.01-11.738,1.929-12.783C395.769,764.732,410.562,767.545,410.562,767.545Z" transform="translate(-393.596 -765.681)"/></g><g transform="translate(39.867 429.52)"><path class="e" d="M434.381,762.734s-.08,3.618-.161,3.7c-.161.08-15.114,1.286-14.712-1.528a23.7,23.7,0,0,1,1.447-4.9Z" transform="translate(-419.5 -760)"/></g><g transform="translate(34.084 199.267)"><path class="f" d="M400.53,490.079s13.908,61.5,17.124,80.152c2.733,15.918,4.9,32.559,3.537,44.056-1.608,14.23-21.787,88.031-20.9,92.211.8,4.18-21.063.643-21.063.643s15.355-82.323,12.3-97.678c-2.251-11.335-22.108-86.745-25.163-82.886s-6.833,71.148-9.085,82.323-9.165,99.447-9.165,99.447S332.6,710.6,328.5,707.142c0,0-1.849-75.329-.482-96.312.563-7.959-9.326-95.668,3.377-130.961C337.984,461.218,400.53,490.079,400.53,490.079Z" transform="translate(-324.877 -473.593)"/></g><g transform="translate(0.08 72.974)"><path class="g" d="M443.374,403.405c-9.969-1.367-41.162,12.461-43.975,11.416-1.929-.724-6.512-15.677-9.808-26.932-1.929-6.673-3.377-12.059-3.618-12.541h0a69.02,69.02,0,0,1-.08,12.139c-.08.4-.08.884-.161,1.286a.483.483,0,0,1-.08.322,54.179,54.179,0,0,1-1.447,7.557A70.078,70.078,0,0,0,382.6,410.8h0v.724c-.241,9.647.4,20.1.643,25.646.4,8.6-2.412,12.461-2.492,12.622h0l-2.975-.4-2.171-.322h0l-2.894-.4-11.336-1.608-4.1-.563-.965-.161-7.155-1.045-20.259-2.814-2.251-.322-.884-.161-7.637-1.045-3.457-.482h0s-2.894-20.742-3.135-32c-.241-10.29-5.708-31.273-6.592-34.65v-.161c0-.08,0-.08-.08-.161v-.08h0s-16.561,17.365-19.7,24.922c-.965,2.331-3.939,8.522-7.8,16.159-2.573-4.984-4.261-8.441-4.261-9.245v-.322c.241-7.477,8.12-37.865,14.31-57.723,4.824-9.647,8.924-17.445,10.29-18.41,2.01-1.447,10.532-5.065,17.928-8.039a2.856,2.856,0,0,0,.724-.322c.724-.241,1.367-.563,2.01-.8.322-.161.643-.241.965-.4a1.162,1.162,0,0,1,.563-.161c.161-.08.322-.08.4-.161h0a45.927,45.927,0,0,1,7.075-2.412h.482a4.613,4.613,0,0,1,.965.08c4.582.241,18.249,1.527,22.591,1.929.8.08,1.286.161,1.367.161h0L358,321.082h0l.322.161c1.929.884,4.1,2.01,6.431,3.3,4.582,2.492,9.647,5.467,13.828,7.4,4.1,1.929,9.728,4.663,10.21,5.065l20.581,59.813,36.1-6.592Z" transform="translate(-273.1 -316.5)"/></g><g transform="translate(40.422 196.86)"><path class="h" d="M418.506,479.926s1.527,1.849,1.929,9.567c0,0-62.627-7.316-69.219-10.21,0,0-.241-8.522,1.125-8.682C353.95,470.52,418.506,479.926,418.506,479.926Z" transform="translate(-351.2 -470.599)"/></g><g transform="translate(54.346 48.407)"><path class="i" d="M388.225,308.338c.161,9.808,19.214,15.194,19.214,15.194s7.959-9.969,6.03-10.934c-.724-.4-1.045-1.849-1.126-3.537a37.82,37.82,0,0,1,.08-4.422c.08-.724.08-1.125.08-1.125s-2.733-2.894-6.19-6.271c-6.03-5.949-14.39-13.667-14.39-10.612a1.57,1.57,0,0,0,.08.563C393.531,294.028,388.225,308.338,388.225,308.338Z" transform="translate(-388.225 -285.941)"/></g><g transform="translate(51.613 198.147)"><path class="d" d="M422.341,472.522s-1.367,8.6-1.447,10.853L418,482.812s.8-9.085,1.286-10.612Z" transform="translate(-418 -472.2)"/></g><g transform="translate(99.608 204.82)"><path class="d" d="M361.594,480.9s1.125,7.8,1.125,10.773l-3.055-.4s-.643-9.808-.965-10.773Z" transform="translate(-358.7 -480.5)"/></g><g transform="translate(61.662 56.413)"><path class="j" d="M387.5,295.9h0a31.874,31.874,0,0,0,2.251,2.975c2.894,3.7,8.441,9.728,14.551,12.139a37.813,37.813,0,0,1,.08-4.422,7.928,7.928,0,0,0,1.929-.241,56.269,56.269,0,0,0-4.1-6.03l-3.859-1.125Z" transform="translate(-387.5 -295.9)"/></g><g transform="translate(51.566 16.084)"><path class="i" d="M377.939,278.829c1.608,3.618,3.216,6.19,3.618,7.235h0a12.267,12.267,0,0,0,2.251,2.975c3.135,3.377,9,7.8,14.712,7.637a7.932,7.932,0,0,0,1.929-.241,8.839,8.839,0,0,0,6.512-4.5c11.9-23.234,3.3-42.287,3.3-42.287s-32.479-9.165-37.544.563C369.1,257.2,374.081,270.468,377.939,278.829Z" transform="translate(-371.461 -245.735)"/></g><g transform="translate(46.604)"><path class="k" d="M414.026,245.8s3.055-.161,3.779-5.869c.724-5.628-.724-7.235-.724-7.235s-13.426-5.628-18.249-6.351-16.642-1.447-19.455,1.769c0,0-6.753-1.527-8.6,9.647-2.894,17.767,9.888,34.971,9.888,34.971s-.08-11.577,2.412-13.1c2.573-1.527,4.743,2.09,4.743,2.09l5.226.965s-7.959-17.124,1.608-17.767C404.3,244.2,408.56,246.769,414.026,245.8Z" transform="translate(-370.348 -225.729)"/></g><g transform="translate(54.957 26.423)"><path class="i" d="M416.782,263.5c-.482-5.145-9.728-7.075-9.084-1.688s5.145,10.532,7.235,10.29C417.1,271.945,417.184,267.443,416.782,263.5Z" transform="translate(-407.665 -258.596)"/></g><g transform="translate(0 75.306)"><path class="l" d="M397.709,405.743v-.322c.161-7.477,3.859-37.383,10.049-57.24,2.975-9.647,3.7-16.32,4.824-17.2,2.01-1.447,19.938-6.753,27.575-9.728a2.859,2.859,0,0,0,.724-.322c.724-.241,1.367-.563,2.01-.8.322-.161.643-.241.965-.4a1.162,1.162,0,0,1,.563-.161c.161-.08.322-.08.4-.161l.08.08a118.692,118.692,0,0,1,8.361,10.773c7.879,11.175,18.089,29.263,16.561,45.985-.482,5.386-1.125,13.1-2.171,21.706-.08.724-.161,1.447-.241,2.251-.241,2.01-.563,4.02-.8,6.11-.161,1.206-.4,2.492-.563,3.7-2.09,12.943-8.6,21.787-14.39,32.318-.08.08-.08.161-.161.241,0,.08-.08.08-.08.161a4.494,4.494,0,0,1-.4.643c-.161.4-.4.724-.563,1.125-.08.241-.241.4-.322.643-1.125,2.09-2.171,4.341-3.216,6.512-.643,1.447-1.367,2.814-2.01,4.261a1.759,1.759,0,0,1-.241.4s-1.045,2.492-2.412,5.628c-.482,1.206-1.045,2.412-1.608,3.7-.4.884-.724,1.769-1.125,2.573l-.965,2.171c-.643,1.527-1.206,2.894-1.608,3.779-.322.724-.482,1.206-.563,1.367-2.01,4.984-3.457,8.843-4.1,10.612-.241.724-.4,1.126-.4,1.126l-20.018-11.094c-3.779-1.93-1.849-12.139-.4-16.159A106.34,106.34,0,0,1,416.2,449.4l2.412-4.582c-6.271-10.934-12.622-22.269-16.641-29.906C399.317,410.084,397.709,406.627,397.709,405.743Zm31.836-31.354h0c0-.08,0-.161-.08-.161,0-.08,0-.08-.08-.161v-.08h0s-9.728,15.194-9,28.459c.08,2.09,2.171,7.235,5.145,13.908h0c1.045,2.412,2.331,5.065,3.618,7.8.08-.08.08-.241.161-.322,1.849-4.582,3.055-8.843,3.055-12.541C432.359,411.29,431.555,382.268,429.545,374.389Z" transform="translate(-397.709 -319.4)"/></g><g transform="translate(85.056 77.557)"><path class="l" d="M352.643,384.183,307.3,394.072l-21.626-56.517c-.482-.4-6.673-3.7-10.773-5.708-4.261-2.01-9.647-4.582-14.471-6.753-2.251-1.045-4.422-2.01-6.271-2.894l-.161.08s2.653,8.924,6.11,31.193h0c.08.724.241,1.527.322,2.251a.3.3,0,0,0,.08.241c.08.482.161,1.045.241,1.527v.161c.08.322.08.724.161,1.045.161.884.241,1.769.4,2.653,1.527,10.853,3.7,29.263,5.788,47.834h0c1.608,14.632,5.386,29.746,6.592,40.92h0c.241,2.171.8,5.145,1.527,8.441.08.4.161.724.241,1.125,3.377,14.149,9.888,34.248,9.888,34.248l1.929-1.769,5.628-5.226a4.643,4.643,0,0,0,1.286-4.663c-3.135-10.049-13.747-45.664-15.677-70.666h0c-.643-7.879,1.688-15.275,3.055-22.269a.281.281,0,0,0,.08.161c1.125,3.135,2.331,6.512,3.618,9.728h0c3.377,8.843,6.753,16.963,8.2,17.526,3.135,1.206,62.868-15.194,63.27-17.526Z" transform="translate(-254 -322.2)"/></g><g transform="translate(43.171 75.306)"><path class="m" d="M406.948,343.84l9.245,5.226-3.939,4.02,10.532,56.838c2.171-13.345,3.135-25.967,3.859-33.765,2.412-25.806-23.395-54.989-25-56.758-1.206.482-2.573.965-3.939,1.527Z" transform="translate(-397.702 -319.4)"/></g><g transform="translate(84.896 77.476)"><path class="m" d="M362.8,322.1s3.457,11.335,7.477,39.473c1.527,10.853,3.7,29.263,5.788,47.834l2.171-53.221-4.422-4.743,3.939-4.9-8.361-21.385c-2.251-1.045-4.422-2.01-6.271-2.894Z" transform="translate(-362.8 -322.1)"/></g><g transform="translate(46.709 70.804)"><path class="n" d="M396.1,318.463l7.637-4.663s.241,4.18,19.214,15.194l-5.386,15.194Z" transform="translate(-396.1 -313.8)"/></g><g transform="translate(73.56 72.894)"><path class="n" d="M387.065,316.4s-.322,4.582-5.065,13.1l10.532,13.747.8-22.269Z" transform="translate(-382 -316.4)"/></g><g transform="translate(72.117 85.998)"><path class="o" d="M389.543,332.7s-2.01,8.2-1.286,10.451c0,0,4.5,1.608,7.718-.4A39.559,39.559,0,0,0,389.543,332.7Z" transform="translate(-388.1 -332.7)"/></g><g transform="translate(83.127 179.978)"><g transform="translate(0)"><path class="p" d="M383.32,473.4c1.125-5.788.08-22.993,0-23.8l-.965.08c0,.161,1.126,17.847,0,23.475Z" transform="translate(-382.355 -449.6)"/></g></g><g transform="translate(75.972 201.122)"><path class="q" d="M377.761,475.9s9.245,1.126,12.3,1.849l-.4,10.29L377.6,486.753Z" transform="translate(-377.6 -475.9)"/></g><g transform="translate(72.997 94.198)"><path class="o" d="M384.612,344.025s10.29,25.967,8.6,54.989c-1.769,30.148-4.582,41-4.582,41l-6.351,7.959-2.814-9.728s8.522-38.428,2.975-75.731c-.965-6.753-2.492-19.616-2.492-19.616Z" transform="translate(-379.467 -342.9)"/></g><g transform="translate(37.22 217.809)"><path class="i" d="M426.651,496.692s2.171,4.422,4.422,5.145c2.171.724,5.386,4.341,5.386,4.341l-15.516,8.2s-4.1-8.12-4.341-13.265C416.441,495.968,426.651,496.692,426.651,496.692Z" transform="translate(-416.6 -496.657)"/></g><g transform="translate(36.338 218.246)"><path class="g" d="M438.081,497.2l1.045,2.09s-9.888,7.235-12.541,7.637l-.884-2.733Z" transform="translate(-425.7 -497.2)"/></g><g transform="translate(15.194 168.643)"><path class="l" d="M460.269,485.264s-7.4,6.11-13.587,8.924l-20.983-37.7L436.553,435.5S459.787,481.566,460.269,485.264Z" transform="translate(-425.7 -435.5)"/></g><g transform="translate(109.898 114.618)"><path class="r" d="M344.912,385.585c.322,6.994.322,13.185.322,13.185h0v.563a.484.484,0,0,1,.08-.322c1.125,3.135,2.331,6.512,3.618,9.728a79.685,79.685,0,0,0,.241-10.612C348.69,378.59,342.5,368.3,342.5,368.3,343.867,371.677,344.59,378.912,344.912,385.585Z" transform="translate(-342.5 -368.3)"/></g><g transform="translate(18.491 200.8)"><path class="r" d="M443.7,480.082l16.8,20.259L446.112,475.5Q444.785,477.912,443.7,480.082Z" transform="translate(-443.7 -475.5)"/></g><g transform="translate(134.492 99.102)"><path class="o" d="M242.706,429.956h38.75A5.682,5.682,0,0,0,287,425.535l16.8-69.46A5.709,5.709,0,0,0,298.258,349h-38.75a5.682,5.682,0,0,0-5.547,4.422l-16.8,69.46A5.739,5.739,0,0,0,242.706,429.956Z" transform="translate(-236.992 -349)"/></g><g transform="translate(174.84 136.088)"><g transform="translate(0)"><path class="i" d="M258.507,419.682c-1.929-1.769-5.547-2.733-8.682-4.824s-.482-4.261-.482-4.261c-3.216-1.126-2.894-2.573-2.492-3.537.563-1.367,4.1-.965,4.1-.965a37.068,37.068,0,0,1-4.422-1.286c-1.286-.563-.884-2.814,1.126-3.537s10.13,1.286,10.13,1.286l-5.306-2.653c-4.02-2.01-4.9-3.859-2.492-4.743,1.608-.643,4.9.643,11.094,4.824,4.663,3.135,4.261,3.537,4.261,3.537S260.758,421.772,258.507,419.682Z" transform="translate(-245.789 -395.005)"/></g></g></g><g transform="translate(329.775 183.458)"><rect class="s" width="62.225" height="14.069" transform="translate(0)"/></g><g transform="translate(133.51)"><g transform="translate(0 0.062)"><path class="b" d="M237.678,22.927A34.37,34.37,0,0,1,271.2.1a33.033,33.033,0,0,1,10.612,2.01,34.388,34.388,0,0,1,21.3,22.189,34.021,34.021,0,0,1-.482,21.867c-.241.724-.563,1.447-.884,2.171a35.885,35.885,0,0,1-5.306,8.6,34.512,34.512,0,0,1-58.768-34.007Zm23.716,35.936a25.82,25.82,0,0,0,28.379-7.557,26.3,26.3,0,0,0,4.02-6.431c.241-.563.4-1.045.643-1.608a26.06,26.06,0,0,0,.322-16.4,25.731,25.731,0,0,0-16-16.641A25.365,25.365,0,0,0,270.8,8.7a25.834,25.834,0,0,0-9.406,50.166Z" transform="translate(-235.644 -0.077)"/></g><g transform="translate(35.236)"><path class="t" d="M261.677,26.771l8.2-2.573a34.388,34.388,0,0,0-21.3-22.189A36.978,36.978,0,0,0,238.041,0L237.8,8.6a25.365,25.365,0,0,1,7.959,1.527A25.784,25.784,0,0,1,261.677,26.771Z" transform="translate(-237.8)"/></g><g transform="translate(58.148 24.198)"><path class="u" d="M235.784,50.681l7.879,3.457c.322-.724.563-1.447.884-2.171a34.569,34.569,0,0,0,.482-21.867l-8.2,2.573a26.06,26.06,0,0,1-.322,16.4C236.266,49.636,236.025,50.2,235.784,50.681Z" transform="translate(-235.784 -30.1)"/></g><g transform="translate(54.129 44.779)"><g transform="translate(0)"><path class="v" d="M245.992,67.759a32.192,32.192,0,0,0,5.306-8.6L243.42,55.7a26.3,26.3,0,0,1-4.02,6.431Z" transform="translate(-239.4 -55.7)"/></g></g></g></g><g transform="translate(500 1980)"><g class="ao" transform="matrix(1, 0, 0, 1, -321, -88)"><path class="c" d="M449.793,536.873H19.191A19.248,19.248,0,0,1,0,517.681V19.191A19.248,19.248,0,0,1,19.191,0H449.553a19.248,19.248,0,0,1,19.191,19.191v498.25A18.949,18.949,0,0,1,449.793,536.873Z" transform="translate(321 88)"/></g><g transform="translate(126.182 63.571)"><line class="w" x2="1.199"/><line class="x" x2="270.835" transform="translate(3.598)"/><line class="w" x2="1.199" transform="translate(275.633)"/><g transform="translate(0 49.657)"><line class="w" x2="1.199"/><line class="x" x2="270.835" transform="translate(3.598)"/><line class="w" x2="1.199" transform="translate(275.633)"/></g><g transform="translate(0 99.554)"><line class="w" x2="1.199"/><line class="x" x2="270.835" transform="translate(3.598)"/><line class="w" x2="1.199" transform="translate(275.633)"/></g><g transform="translate(0 149.451)"><line class="w" x2="1.199"/><line class="x" x2="270.835" transform="translate(3.598)"/><line class="w" x2="1.199" transform="translate(275.633)"/></g><g transform="translate(0 199.348)"><line class="w" x2="1.199"/><line class="x" x2="270.835" transform="translate(3.598)"/><line class="w" x2="1.199" transform="translate(275.633)"/></g><g transform="translate(0 239.65)"><line class="w" x2="1.199"/><line class="x" x2="270.835" transform="translate(3.598)"/><line class="w" x2="1.199" transform="translate(275.633)"/></g></g><g transform="translate(139.136 64.993)"><path class="y" d="M163.3,67.078V216.769H152.5V67.078a5.324,5.324,0,0,1,5.278-5.278h0A5.379,5.379,0,0,1,163.3,67.078Z" transform="translate(74.195 21.458)"/><path class="z" d="M144.4,32.387V265.56H133.6V32.387a5.324,5.324,0,0,1,5.278-5.278h0A5.1,5.1,0,0,1,144.4,32.387Z" transform="translate(47.756 -27.093)"/><path class="aa" d="M125.6,59.387v168.4H114.8V59.387a5.324,5.324,0,0,1,5.278-5.278h0A5.1,5.1,0,0,1,125.6,59.387Z" transform="translate(21.457 10.677)"/><path class="ab" d="M106.7,91.887v90.438H95.9V91.887a5.324,5.324,0,0,1,5.278-5.278h0A5.1,5.1,0,0,1,106.7,91.887Z" transform="translate(-4.982 56.141)"/><path class="ac" d="M87.9,77.687v124.5H77.1V77.687a5.324,5.324,0,0,1,5.278-5.278h0A5.1,5.1,0,0,1,87.9,77.687Z" transform="translate(-31.281 36.277)"/><path class="ad" d="M68.8,44.587V248.493H58V44.587a5.324,5.324,0,0,1,5.278-5.278h0A5.226,5.226,0,0,1,68.8,44.587Z" transform="translate(-58 -10.027)"/></g><g transform="translate(60.905 205.124)"><text class="ae" transform="translate(0 11)"><tspan x="0" y="0">400</tspan></text></g><g transform="translate(60.905 253.962)"><text class="ae" transform="translate(0 11)"><tspan x="0" y="0">200</tspan></text></g><g transform="translate(60.905 154.369)"><text class="ae" transform="translate(0 11)"><tspan x="0" y="0">600</tspan></text></g><g transform="translate(60.905 103.614)"><text class="ae" transform="translate(0 11)"><tspan x="0" y="0">800</tspan></text></g><g transform="translate(60.905 52.859)"><text class="ae" transform="translate(0 11)"><tspan x="0" y="0">1000</tspan></text></g><g transform="translate(54.215 340.403)"><path class="af" d="M161.736,141.9H37.953A15.461,15.461,0,0,0,22.6,157.253V207.87a15.461,15.461,0,0,0,15.353,15.353H161.736Z" transform="translate(-22.6 -141.9)"/><text class="ag" transform="translate(25.785 41.7)"><tspan x="0" y="0">2019</tspan></text><text class="ah" transform="translate(41.785 63.393)"><tspan x="0" y="0">PROFIT</tspan></text><g transform="translate(124.263)"><rect class="ai" width="119.465" height="81.323"/><text class="ag" transform="translate(33.522 41.7)"><tspan x="0" y="0">90%</tspan></text><text class="ah" transform="translate(45.522 62.552)"><tspan x="0" y="0">INCOME</tspan></text></g><g transform="translate(243.248)"><path class="aj" d="M228.112,141.9H124v81.323H228.112a15.461,15.461,0,0,0,15.353-15.353V157.253A15.461,15.461,0,0,0,228.112,141.9Z" transform="translate(-124 -141.9)"/><text class="ag" transform="translate(38.537 41.7)"><tspan x="0" y="0">87</tspan></text><text class="ah" transform="translate(39.537 62.552)"><tspan x="0" y="0">SCORE</tspan></text></g></g><g transform="translate(56.614 448.688)"><path class="ak" d="M43.751,199.075A10.075,10.075,0,1,1,33.675,189,10.136,10.136,0,0,1,43.751,199.075Z" transform="translate(-23.6 -184.297)"/><g transform="translate(35.183 -1)"><rect class="al" width="113.228" height="51.576" transform="translate(0 4.223)"/><text class="am" transform="translate(0.072 11)"><tspan x="0" y="0">Lorem ipsum dolor sit </tspan><tspan x="0" y="13">amet, consectetuer </tspan><tspan x="0" y="26">adipiscing.</tspan></text></g></g><g transform="translate(256.922 448.688)"><path class="an" d="M127.251,199.075A10.075,10.075,0,1,1,117.175,189,10.136,10.136,0,0,1,127.251,199.075Z" transform="translate(-107.1 -184.297)"/><g transform="translate(37.183)"><rect class="al" width="113.228" height="51.576" transform="translate(0 4.223)"/><text class="am" transform="translate(0.027 11)"><tspan x="0" y="0">Lorem ipsum dolor sit </tspan><tspan x="0" y="13">amet, consectetuer </tspan><tspan x="0" y="26">adipiscing.</tspan></text></g></g></g><g transform="translate(390.03 1926.053)"><g transform="translate(0)"><path class="b" d="M146.417,61.385a94.122,94.122,0,0,1,108.8,20.564,95.58,95.58,0,0,1,16.5,24.271,93.981,93.981,0,0,1-44.835,125.3,59.726,59.726,0,0,1-5.739,2.511A94.113,94.113,0,0,1,146.417,61.385ZM122.863,176.759a70.611,70.611,0,0,0,69.464,40.172,71.771,71.771,0,0,0,20.206-4.663c1.435-.6,2.869-1.2,4.3-1.913a69.642,69.642,0,0,0,32.281-31.085,70.421,70.421,0,0,0,1.315-62.888A68.984,68.984,0,0,0,238,98.209a70.55,70.55,0,0,0-115.136,78.55Z" transform="translate(-92.517 -52.308)"/></g><g transform="translate(145.721 29.641)"><g transform="translate(0)"><path class="u" d="M103.381,174.421,124.3,185.3a93.69,93.69,0,0,0,1.674-83.931,91.546,91.546,0,0,0-16.5-24.271l-17.1,16.14a71.957,71.957,0,0,1,12.434,18.173A71.046,71.046,0,0,1,103.381,174.421Z" transform="translate(-92.382 -77.1)"/></g></g><g transform="translate(120.016 126.962)"><g transform="translate(0)"><path class="v" d="M101.5,191.379l8.608,21.879a59.735,59.735,0,0,0,5.739-2.511,94.112,94.112,0,0,0,43.161-41.367L138.085,158.5A70.791,70.791,0,0,1,105.8,189.585C104.369,190.183,102.935,190.9,101.5,191.379Z" transform="translate(-101.5 -158.5)"/></g></g><g transform="translate(99.811 159.96)"><g transform="translate(0)"><path class="v" d="M144.313,214.2a93.476,93.476,0,0,0,26.9-6.217L162.605,186.1a67.043,67.043,0,0,1-20.206,4.663Z" transform="translate(-142.4 -186.1)"/></g></g></g><g transform="translate(513.154 2098.208)"><path class="v" d="M0,274.253H175.752v-3.467H3.467V196.3H0Z" transform="translate(0 -196.3)"/></g></g></svg>