<svg xmlns="http://www.w3.org/2000/svg" width="43.874" height="42.996" viewBox="0 0 43.874 42.996"><defs><style>.a{fill:#fff;}</style></defs><path class="a" d="M2.949,309.527H0V287H18.2v2.949H2.949Z" transform="translate(0 -267.319)"/><path class="a" d="M29.912,43H15.649V36.5H18.6v3.545H29.912c4.156,0,6.686-2.99,8.078-5.5A27.894,27.894,0,0,0,40.925,21.5,27.894,27.894,0,0,0,37.99,8.448c-1.392-2.51-3.922-5.5-8.078-5.5H2.949V5.705H0V0H29.912a10.8,10.8,0,0,1,6.309,1.989,14.785,14.785,0,0,1,4.348,5.026A30.444,30.444,0,0,1,43.874,21.5a30.444,30.444,0,0,1-3.305,14.483,14.72,14.72,0,0,1-4.348,5.026A10.8,10.8,0,0,1,29.912,43Z"/></svg>